<?xml version="1.0" standalone="no"?>
<!DOCTYPE svg PUBLIC "-//W3C//DTD SVG 20010904//EN"
 "http://www.w3.org/TR/2001/REC-SVG-20010904/DTD/svg10.dtd">
<svg version="1.0" xmlns="http://www.w3.org/2000/svg"
 width="290.000000pt" height="376.000000pt" viewBox="0 0 290.000000 376.000000"
 preserveAspectRatio="xMidYMid meet">

<g transform="translate(0.000000,376.000000) scale(0.100000,-0.100000)"
fill="#000000" stroke="none">
<path d="M1880 2529 c-286 -25 -591 -100 -643 -157 -9 -10 -24 -56 -32 -103
-21 -113 -40 -170 -86 -260 -55 -105 -116 -171 -193 -208 -106 -50 -124 -49
-396 9 -206 43 -312 21 -421 -89 -74 -75 -99 -130 -99 -220 0 -65 24 -124 77
-190 71 -89 61 -91 178 23 82 81 109 114 133 166 16 36 43 80 59 97 36 39 97
67 130 58 l25 -6 -35 -38 c-27 -30 -38 -55 -52 -115 -9 -43 -14 -80 -11 -84 3
-3 16 4 29 16 29 27 156 56 205 47 20 -4 77 -24 125 -46 164 -74 433 -90 696
-44 128 23 148 25 189 13 46 -13 49 -13 121 23 l73 36 -33 12 c-19 7 -95 16
-169 20 -145 8 -175 17 -221 68 -38 40 -49 66 -49 111 0 54 40 190 101 342 79
198 110 232 253 275 89 26 285 71 356 81 25 3 113 16 195 30 83 13 204 28 270
34 162 14 215 21 215 29 0 21 -176 53 -380 71 -134 11 -473 11 -610 -1z"/>
</g>
</svg>
